<svg xmlns="http://www.w3.org/2000/svg" viewBox="0 0 64 64">
  <defs>
    <linearGradient id="g" x1="0" y1="0" x2="0" y2="1">
      <stop offset="0%" stop-color="#3a3d44"/>
      <stop offset="100%" stop-color="#0e1014"/>
    </linearGradient>
  </defs>
  <rect width="64" height="64" rx="10" fill="#0a0b0d"/>
  <g transform="translate(8 14)">
    <!-- isometric cube -->
    <polygon points="24,0 48,12 48,28 24,40 0,28 0,12" fill="url(#g)" stroke="#5a626c" stroke-width="0.6"/>
    <polygon points="24,0 48,12 24,24 0,12" fill="#22262d" stroke="#5a626c" stroke-width="0.6"/>
    <!-- waveform carved in seam -->
    <path d="M0 20 L6 20 L8 16 L10 24 L12 18 L14 22 L16 18 L18 20 L20 14 L22 26 L24 18 L26 24 L28 18 L30 22 L32 18 L34 20 L36 16 L38 24 L40 18 L42 22 L44 18 L46 20 L48 20"
          fill="none" stroke="#d6dde2" stroke-width="1.4" stroke-linecap="round" stroke-linejoin="round" opacity="0.85"/>
  </g>
</svg>
